<?xml version="1.0" encoding="utf-8"?>
<!-- Generator: Adobe Illustrator 22.0.1, SVG Export Plug-In . SVG Version: 6.00 Build 0)  -->
<svg version="1.1" id="svg415" xmlns="http://www.w3.org/2000/svg" xmlns:xlink="http://www.w3.org/1999/xlink" x="0px" y="0px"
	 viewBox="0 0 702.6 433.8" style="enable-background:new 0 0 702.6 433.8;" xml:space="preserve">
<style type="text/css">
	.st0{fill:#317569;}
	.st1{fill:#5AB947;}
</style>
<title>Obszar roboczy 1</title>
<g>
	<path class="st0" d="M373.5,220.9c-4.4,3.6-9.3,6.5-14.6,8.5c-5.3,1.7-10.9,2.6-16.5,2.4c-6.8,0-13.5-1.3-19.8-4.1
		c-12.2-5.2-21.9-14.9-27.1-27.1c-5.4-12.6-5.4-26.9,0-39.5c2.6-6.1,6.3-11.6,10.9-16.3c4.6-4.7,10.1-8.4,16.2-11.1
		c6.2-2.7,13-4.1,19.8-4.1c6.6,0,13.2,1.3,19.3,3.9c6,2.6,11.4,6.3,16,10.9c9.6,9.7,15.3,22.6,15.8,36.3v20.5l-20-16.3L373.5,220.9z
		 M342.8,208.1c7,0,12.8-1.4,17.4-4.2c4.3-2.5,8-6,10.5-10.4c2.3-4.1,3.5-8.8,3.4-13.5c0-4.7-1.3-9.4-3.6-13.5
		c-2.5-4.3-6.1-7.9-10.5-10.4c-4.7-2.8-10.4-4.2-17.2-4.2c-8.8,0-16,2.6-21.4,7.8s-8.1,12.3-8.1,21.3c0,8.8,2.7,15.5,8.1,20.1
		C326.9,205.8,334,208.1,342.8,208.1z"/>
	<path class="st1" d="M458.7,231.8l-53.5-55.1V78.1l21.2,18.4V163l32.3-33.5h25.6l-47.4,50.7c10.8,10.8,19.2,19.4,25.1,25.8
		c5.9,6.4,10.4,11.3,13.4,14.8c3,3.5,5,6,6,7.4c0.9,1.3,1.8,2.5,2.9,3.6L458.7,231.8z"/>
	<path class="st1" d="M495.9,96h21.4v33.5l-21.4-20.7L495.9,96z M495.9,231.8V129.5h21.4v102.3L495.9,231.8z"/>
	<path class="st1" d="M588.9,129.5v18.8h-17.4v59.1l-21.6,24.4v-83.5l-20.9-18.8h20.9V77.9h21.6v51.6H588.9z"/>
	<path class="st0" d="M682.6,220.9c-4.4,3.6-9.3,6.5-14.6,8.5c-5.3,1.7-10.9,2.6-16.5,2.4c-6.8,0-13.5-1.3-19.8-4.1
		c-12.2-5.2-21.9-14.9-27.1-27.1c-5.4-12.6-5.4-26.9,0-39.5c2.6-6.1,6.3-11.6,10.9-16.3c4.6-4.7,10.1-8.4,16.2-11.1
		c6.2-2.7,13-4.1,19.8-4.1c6.6,0,13.2,1.3,19.3,3.9c6,2.6,11.4,6.3,16,10.9c9.6,9.7,15.3,22.6,15.8,36.3v20.5l-20-16.3L682.6,220.9z
		 M651.9,208.1c7,0,12.8-1.4,17.4-4.2c4.3-2.5,7.9-6,10.5-10.4c2.3-4.1,3.5-8.8,3.4-13.5c0-4.7-1.3-9.4-3.6-13.5
		c-2.5-4.3-6.1-7.9-10.5-10.4c-4.7-2.8-10.4-4.2-17.2-4.2c-8.8,0-16,2.6-21.4,7.8s-8.1,12.3-8.1,21.3c0,8.8,2.7,15.5,8.1,20.1
		C635.9,205.8,643.1,208.1,651.9,208.1z"/>
	<path class="st1" d="M307.4,291.4v-44h-15.5v-1h31.9v1h-15.5v44H307.4z"/>
	<path class="st1" d="M308.9,291.9h-2v-44h-15.5v-2h32.9v2h-15.5V291.9z M307.9,247h15.5h-30.9H307.9z"/>
	<path class="st1" d="M328.7,291.2h-1v-44.8h15.5c17.9,0,17.9,26.2,0,26.2H336l20.6,18.6h-1.5l-20.6-18.6v-1h8.7
		c16.6,0,16.6-24.2,0-24.2h-14.5V291.2z"/>
	<path class="st1" d="M357.9,291.7h-3L334,272.8v-1.7h9.2c8.2,0,12-6,12-11.6c0-5.6-3.8-11.6-12-11.6h-14v43.8h-2v-45.8h16
		c9.6,0,13.9,7,13.9,13.6c0.2,7.3-5.5,13.4-12.8,13.6c-0.4,0-0.7,0-1.1,0h-6L357.9,291.7z M328.2,247h15c4.7,0,8.1,1.8,10.2,4.5
		c-2.1-2.6-5.5-4.5-10.2-4.5L328.2,247z"/>
	<path class="st1" d="M388.5,276.2h-22.6l-6.1,15h-1.1l18-45.4h1.1l18,45.4h-1.1L388.5,276.2z M366.3,275.2h21.8l-10.9-28.1
		L366.3,275.2z"/>
	<path class="st1" d="M396.5,291.7h-2.1l-6.1-15h-22l-6.1,15H358l18.4-46.4h1.8L396.5,291.7z M395,290.7L395,290.7l-17.6-44.4
		L389,276L395,290.7z M359.4,290.7L359.4,290.7l6.1-15h0.1l10-26L359.4,290.7z M367,274.7h20.4l-10.2-26.2L367,274.7z"/>
	<path class="st1" d="M399,291.2v-44.9l0.9,0.1l29.8,43v-43h1v44.8h-1l-29.6-42.7v42.7L399,291.2z"/>
	<path class="st1" d="M431.2,291.7h-1.8l-0.1-0.2l-28.7-41.4v41.7h-2v-45.9l1.7,0.1l29,41.9v-41.9h2L431.2,291.7z M429.9,290.7h0.1
		l-0.7-1l-29.6-42.8h-0.1L429.9,290.7z M399.5,290.7L399.5,290.7v-43.8V290.7z"/>
	<path class="st1" d="M464.6,255.8c-0.3-1.8-1.2-3.5-2.4-4.9c-2.8-2.9-7.2-4.2-11.2-4.1c-4.2,0.1-9,1.6-11.7,5.1
		c-1.5,1.9-2.3,4.4-2,6.8c1.1,15.7,26.3,3.4,29.4,17.7c2,9.5-7,15.1-15.5,15.1c-6.5,0-14.5-3.7-15.2-10.9l-0.1-0.5l1-0.1l0.1,0.5
		c0.7,6.7,8.2,10.1,14.3,10.1c7.8,0,16.3-5.1,14.4-14c-2.9-13.3-28.1-1.1-29.3-17.9c-0.3-2.7,0.5-5.4,2.1-7.5
		c6.5-8.4,25-7.4,27.1,4.2l0.1,0.5l-1,0.2L464.6,255.8z"/>
	<path class="st1" d="M451.2,292.2c-7,0-14.9-4-15.7-11.4l-0.1-0.9l2-0.3l0.1,0.9c0.7,6.3,7.6,9.7,13.8,9.7c4.9,0,9.5-1.9,12-5.1
		c1.9-2.3,2.6-5.4,1.9-8.3c-1.3-5.9-7.3-6.5-13.6-7.1c-7.4-0.7-15-1.5-15.7-10.8c-0.3-2.8,0.5-5.6,2.2-7.8
		c3.6-4.6,11.1-6.8,17.9-5.2c5.5,1.3,9.2,4.8,10.1,9.6l0.1,1l-1.9,0.4l-0.1-1c-0.3-1.7-1.1-3.3-2.3-4.6c-2.3-2.5-6.2-3.9-10.5-3.9
		H451c-4.8,0.1-9,1.9-11.3,4.9c-1.4,1.8-2.1,4.2-1.9,6.5c0.6,7.6,7.1,8.3,14,9c6.8,0.7,13.7,1.4,15.3,8.7c0.8,3.4,0,7.1-2.2,9.8
		C462,289.9,456.8,292.2,451.2,292.2z M436.5,280.7c0.4,3.8,3,6.7,6.3,8.4C439.4,287.4,436.9,284.5,436.5,280.7L436.5,280.7z
		 M454.4,269c5.5,0.7,10.5,2,11.7,7.6c0.8,3.2,0,6.6-2.1,9.1c-0.3,0.4-0.7,0.8-1.1,1.2c0.4-0.4,0.8-0.8,1.2-1.3c2-2.5,2.8-5.9,2-9
		C465,270.9,460.1,269.7,454.4,269z M437.5,262.2c1.5,3.9,5,5.3,9.3,6C442.7,267.5,439,266.1,437.5,262.2L437.5,262.2z M464,252.6
		c0.4,0.8,0.8,1.6,1,2.5C464.8,254.2,464.4,253.3,464,252.6z M440,250.4c-0.4,0.4-0.8,0.8-1.2,1.3c-0.2,0.3-0.4,0.6-0.6,0.9
		c0.2-0.3,0.4-0.7,0.7-1C439.2,251.2,439.6,250.8,440,250.4z M451.3,246.4c3.3-0.1,6.5,0.8,9.3,2.6c-1.5-1-3.1-1.7-4.8-2.1
		c-1.5-0.4-3.1-0.5-4.7-0.5H451.3z"/>
	<path class="st1" d="M472.8,290.2h24.1v1h-25.1v-44.7h1L472.8,290.2z"/>
	<path class="st1" d="M497.4,291.7h-26.1V246h2v43.7h24.1L497.4,291.7z M472.3,290.7h24.1H472.3l0-43.7L472.3,290.7z"/>
	<path class="st1" d="M528.6,276.2H506l-6.1,15h-1.1l18-45.4h1.1l18,45.4h-1.1L528.6,276.2z M506.4,275.2h21.8l-10.9-28.1
		L506.4,275.2z"/>
	<path class="st1" d="M536.6,291.7h-2.2l-6.1-15h-22l-6.1,15H498l18.4-46.4h1.8L536.6,291.7z M535.1,290.7L535.1,290.7l-17.6-44.4
		l11.6,29.7L535.1,290.7z M499.5,290.7L499.5,290.7l6.1-15h0.1l10-26L499.5,290.7z M507.1,274.7h20.4l-10.2-26.2L507.1,274.7z"/>
	<path class="st1" d="M545.6,291.4v-44h-15.5v-1H562v1h-15.5v44H545.6z"/>
	<path class="st1" d="M547,291.9h-2v-44h-15.5v-2h32.9v2H547V291.9z M546,247h15.5h-30.9H546z"/>
	<path class="st1" d="M583.8,247.4h-9.5v42.9h9.5v1h-20v-1h9.5v-42.9h-9.5v-0.9h20V247.4z"/>
	<polygon class="st1" points="584.3,291.7 563.3,291.7 563.3,289.8 572.8,289.8 572.8,247.9 563.3,247.9 563.3,246 584.3,246 
		584.3,247.9 574.7,247.9 574.7,289.8 584.3,289.8 	"/>
	<path class="st1" d="M590.8,252.6c8.8-8.9,23.1-9.1,32-0.3c0.1,0.1,0.2,0.2,0.3,0.3c9,9,9,23.5,0,32.5c-8.8,8.9-23.1,9.1-32,0.3
		c-0.1-0.1-0.2-0.2-0.3-0.3C581.8,276.1,581.8,261.5,590.8,252.6L590.8,252.6z M622.4,253.3c-8.3-8.5-21.9-8.7-30.5-0.4
		c-0.1,0.1-0.3,0.3-0.4,0.4c-8.5,8.6-8.5,22.4,0,31c8.3,8.5,21.9,8.7,30.5,0.4c0.1-0.1,0.3-0.3,0.4-0.4
		C630.8,275.7,630.8,261.9,622.4,253.3L622.4,253.3z"/>
	<path class="st1" d="M606.9,292.4c-6.2,0-12.2-2.5-16.5-6.9c-9.1-9.2-9.1-24,0-33.2c9-9.1,23.6-9.2,32.7-0.3
		c0.1,0.1,0.2,0.2,0.3,0.3c9.1,9.2,9.1,24,0,33.2C619,289.9,613.1,292.4,606.9,292.4z M606.9,246.3c-5.9,0-11.6,2.4-15.8,6.6l0,0
		c-8.8,8.8-8.8,23,0,31.8c8.6,8.7,22.6,8.9,31.3,0.3c0.1-0.1,0.2-0.2,0.3-0.3c8.8-8.8,8.8-23,0-31.8
		C618.6,248.7,612.8,246.3,606.9,246.3z M606.9,291.3c-5.9,0-11.6-2.4-15.8-6.7c-8.7-8.8-8.7-22.9,0-31.7c8.5-8.7,22.5-8.9,31.2-0.4
		c0.1,0.1,0.3,0.3,0.4,0.4l0,0c8.6,8.8,8.6,22.9,0,31.7C618.6,288.9,612.8,291.3,606.9,291.3L606.9,291.3z M606.9,247.3
		c-5.7,0-11.1,2.3-15.1,6.4c-8.3,8.4-8.3,21.9,0,30.3c8.1,8.3,21.4,8.5,29.8,0.4c0.1-0.1,0.3-0.3,0.4-0.4c8.3-8.4,8.3-21.9,0-30.3
		C618,249.6,612.6,247.3,606.9,247.3L606.9,247.3z"/>
	<path class="st1" d="M634.2,291.2v-44.9l0.9,0.1l29.8,43v-43h1v44.8h-1l-29.6-42.7v42.7L634.2,291.2z"/>
	<path class="st1" d="M666.3,291.7h-1.8l-0.2-0.2l-28.7-41.4v41.7h-2v-45.9l1.7,0.1l29,41.9v-41.9h2L666.3,291.7z M665,290.7
		L665,290.7l-0.6-1l-29.6-42.8h-0.1L665,290.7z M634.7,290.7L634.7,290.7v-43.8V290.7z"/>
	<path class="st1" d="M699.8,255.8c-0.3-1.8-1.2-3.5-2.4-4.9c-2.8-2.9-7.2-4.2-11.2-4.1c-4.2,0.1-9,1.6-11.7,5.1
		c-1.5,1.9-2.3,4.4-2,6.8c1.2,15.7,26.3,3.4,29.4,17.7c2,9.5-7,15.1-15.5,15.1c-6.5,0-14.5-3.7-15.2-10.9l-0.1-0.5l1-0.1l0.1,0.5
		c0.7,6.7,8.2,10.1,14.3,10.1c7.8,0,16.3-5.1,14.4-14c-2.9-13.3-28.2-1.1-29.3-17.9c-0.3-2.7,0.5-5.4,2.1-7.5
		c6.5-8.4,25-7.4,27.1,4.2l0.1,0.5l-1,0.2L699.8,255.8z"/>
	<path class="st1" d="M686.3,292.2c-7,0-14.9-4-15.7-11.4l-0.1-0.9l2-0.3l0.1,0.9c0.7,6.3,7.6,9.7,13.8,9.7c4.9,0,9.5-1.9,12-5.1
		c1.9-2.3,2.6-5.4,1.9-8.3c-1.3-5.9-7.3-6.5-13.6-7.1c-7.4-0.7-15-1.5-15.7-10.8c-0.3-2.8,0.5-5.6,2.2-7.8
		c3.6-4.6,11.1-6.8,17.9-5.2c5.5,1.3,9.2,4.8,10.1,9.6l0.1,1l-1.9,0.4l-0.1-1c-0.3-1.7-1.1-3.3-2.3-4.6c-2.3-2.5-6.2-3.9-10.5-3.9
		h-0.3c-4.8,0.1-9,1.9-11.3,4.9c-1.5,1.8-2.1,4.2-1.9,6.5c0.6,7.6,7.1,8.3,14,9c6.8,0.7,13.7,1.4,15.3,8.7c0.8,3.4,0,7.1-2.2,9.8
		C697.2,289.9,691.9,292.2,686.3,292.2z M671.6,280.7c0.4,3.9,3,6.7,6.4,8.5C674.6,287.4,672.1,284.6,671.6,280.7L671.6,280.7z
		 M689.5,269c5.5,0.7,10.5,2,11.7,7.6c0.8,3.2,0,6.6-2.1,9.1c-0.3,0.4-0.7,0.8-1.1,1.1c0.4-0.4,0.8-0.8,1.2-1.3c2-2.5,2.8-5.9,2-9
		C700.1,270.9,695.2,269.7,689.5,269z M672.7,262.2c1.5,3.9,5,5.3,9.3,6C677.8,267.5,674.2,266.1,672.7,262.2L672.7,262.2z
		 M699.1,252.5c0.4,0.8,0.8,1.6,1,2.5C699.9,254.2,699.5,253.3,699.1,252.5L699.1,252.5z M675.1,250.4c-0.4,0.4-0.8,0.8-1.2,1.3
		c-0.2,0.3-0.4,0.6-0.6,0.9c0.2-0.3,0.4-0.7,0.7-1C674.4,251.2,674.7,250.8,675.1,250.4L675.1,250.4z M686.4,246.4
		c3.3-0.1,6.5,0.8,9.3,2.6c-1.5-1-3.1-1.7-4.8-2.1c-1.5-0.4-3.1-0.5-4.7-0.5H686.4z"/>
	<path class="st1" d="M63.6,63.5c84.7-84.7,222-84.7,306.7,0L63.6,370.2C-21.1,285.5-21.1,148.2,63.6,63.5z"/>
	<path class="st0" d="M63.5,370.3c84.7,84.7,222,84.7,306.7,0L63.5,63.6C-21.2,148.3-21.2,285.6,63.5,370.3z"/>
</g>
</svg>
